<svg width="50" height="50" viewBox="0 0 50 50" fill="none" xmlns="http://www.w3.org/2000/svg">
<g clip-path="url(#clip0_5_50)">
<path d="M48.9509 14.707C50.346 13.4863 50.346 11.5039 48.9509 10.2832L38.2366 0.908203C36.8415 -0.3125 34.5759 -0.3125 33.1808 0.908203C31.7857 2.12891 31.7857 4.11133 33.1808 5.33203L37.8013 9.375H3.57143C1.59598 9.375 0 10.7715 0 12.5C0 14.2285 1.59598 15.625 3.57143 15.625H37.8013L33.1808 19.668C31.7857 20.8887 31.7857 22.8711 33.1808 24.0918C34.5759 25.3125 36.8415 25.3125 38.2366 24.0918L48.9509 14.7168V14.707ZM11.7522 49.082C13.1473 50.3027 15.4129 50.3027 16.808 49.082C18.2031 47.8613 18.2031 45.8789 16.808 44.6582L12.1987 40.625H46.4286C48.404 40.625 50 39.2285 50 37.5C50 35.7715 48.404 34.375 46.4286 34.375H12.1987L16.8192 30.332C18.2143 29.1113 18.2143 27.1289 16.8192 25.9082C15.4241 24.6875 13.1585 24.6875 11.7634 25.9082L1.04911 35.2832C-0.345982 36.5039 -0.345982 38.4863 1.04911 39.707L11.7634 49.082H11.7522Z" fill="#7840D2"/>
</g>
<defs>
<clipPath id="clip0_5_50">
<rect width="50" height="50" fill="white"/>
</clipPath>
</defs>
</svg>
