<svg width="50" height="50" viewBox="0 0 50 50" fill="none" xmlns="http://www.w3.org/2000/svg">
<g clip-path="url(#clip0_5_83)">
<path d="M25 50C38.75 50 50 38.75 50 25C50 11.25 38.75 0 25 0C11.25 0 0 11.25 0 25C0 38.75 11.25 50 25 50Z" fill="white"/>
<path d="M48.54 33.75C49.58 31.04 50 28.125 50 25C50 21.875 49.375 18.96 48.54 16.25H1.46C0.625 18.96 0 21.875 0 25C0 28.125 0.625 31.04 1.46 33.75L25 35.835L48.54 33.75Z" fill="#0052B4"/>
<path d="M25 50C35.835 50 45 43.125 48.54 33.75H1.45996C4.99996 43.125 14.165 50 25 50Z" fill="#D80027"/>
</g>
<defs>
<clipPath id="clip0_5_83">
<rect width="50" height="50" fill="white"/>
</clipPath>
</defs>
</svg>
